<svg width="20" height="21" viewBox="0 0 20 21" fill="none" xmlns="http://www.w3.org/2000/svg">
<g id="airplane_ticket">
<mask id="mask0_5_698" style="mask-type:alpha" maskUnits="userSpaceOnUse" x="0" y="0" width="20" height="21">
<rect id="Bounding box" y="0.405731" width="20" height="20" fill="#D9D9D9"/>
</mask>
<g mask="url(#mask0_5_698)">
<path id="airplane_ticket_2" d="M9.83329 11.1557L7.83329 11.6557L6.93746 10.9891C6.89579 10.9613 6.78468 10.9335 6.60413 10.9057L6.49996 10.9474C6.37496 10.9752 6.28468 11.0481 6.22913 11.1662C6.17357 11.2842 6.18051 11.3988 6.24996 11.5099L7.20829 13.1766C7.26385 13.2599 7.33329 13.3189 7.41663 13.3537C7.49996 13.3884 7.59024 13.3918 7.68746 13.3641L14.7916 11.4891C15 11.4335 15.1562 11.305 15.2604 11.1037C15.3645 10.9023 15.3888 10.6974 15.3333 10.4891C15.2777 10.2807 15.1562 10.1245 14.9687 10.0203C14.7812 9.91615 14.5833 9.89184 14.375 9.9474L12.3333 10.4891L9.22913 7.5724C9.15968 7.50296 9.07635 7.45782 8.97913 7.43698C8.8819 7.41615 8.78468 7.41962 8.68746 7.4474L8.58329 7.46823C8.38885 7.5099 8.25343 7.62101 8.17704 7.80157C8.10065 7.98212 8.11107 8.15573 8.20829 8.3224L9.83329 11.1557ZM3.33329 17.0724C2.87496 17.0724 2.4826 16.9092 2.15621 16.5828C1.82982 16.2564 1.66663 15.8641 1.66663 15.4057V12.5932C1.66663 12.4405 1.71524 12.3085 1.81246 12.1974C1.90968 12.0863 2.03468 12.0168 2.18746 11.9891C2.52079 11.878 2.7951 11.6766 3.01038 11.3849C3.22565 11.0932 3.33329 10.7668 3.33329 10.4057C3.33329 10.0446 3.22565 9.71823 3.01038 9.42657C2.7951 9.1349 2.52079 8.93351 2.18746 8.8224C2.03468 8.79462 1.90968 8.72518 1.81246 8.61407C1.71524 8.50296 1.66663 8.37101 1.66663 8.21823V5.40573C1.66663 4.9474 1.82982 4.55504 2.15621 4.22865C2.4826 3.90226 2.87496 3.73907 3.33329 3.73907H16.6666C17.125 3.73907 17.5173 3.90226 17.8437 4.22865C18.1701 4.55504 18.3333 4.9474 18.3333 5.40573V15.4057C18.3333 15.8641 18.1701 16.2564 17.8437 16.5828C17.5173 16.9092 17.125 17.0724 16.6666 17.0724H3.33329Z" fill="#1C1B1F"/>
</g>
</g>
</svg>
