<svg width="18" height="19" viewBox="0 0 18 19" fill="none" xmlns="http://www.w3.org/2000/svg">
<g id="Group 33803">
<g id="arrow_forward_ios">
<mask id="mask0_5_723" style="mask-type:alpha" maskUnits="userSpaceOnUse" x="0" y="0" width="18" height="19">
<rect id="Bounding box" y="0.405731" width="18" height="18" fill="#D9D9D9"/>
</mask>
<g mask="url(#mask0_5_723)">
<path id="arrow_forward_ios_2" d="M11.123 9.40578L5.47345 3.75621C5.32445 3.60721 5.25189 3.42984 5.25576 3.22409C5.25964 3.01834 5.33608 2.8409 5.48508 2.69178C5.63408 2.54278 5.81145 2.46828 6.0172 2.46828C6.22295 2.46828 6.40039 2.54278 6.54951 2.69178L12.2913 8.44522C12.4268 8.58084 12.5273 8.73278 12.5926 8.90103C12.6581 9.06928 12.6909 9.23753 12.6909 9.40578C12.6909 9.57403 12.6581 9.74228 12.5926 9.91053C12.5273 10.0788 12.4268 10.2307 12.2913 10.3663L6.53789 16.1198C6.38889 16.2688 6.21345 16.3413 6.01157 16.3375C5.80958 16.3336 5.63408 16.2572 5.48508 16.1082C5.33608 15.9592 5.26158 15.7818 5.26158 15.576C5.26158 15.3703 5.33608 15.1928 5.48508 15.0437L11.123 9.40578Z" fill="white"/>
</g>
</g>
</g>
</svg>
