<svg width="24" height="25" viewBox="0 0 24 25" fill="none" xmlns="http://www.w3.org/2000/svg">
<g id="close">
<mask id="mask0_5_677" style="mask-type:alpha" maskUnits="userSpaceOnUse" x="0" y="0" width="24" height="25">
<rect id="Bounding box" y="0.405731" width="24" height="24" fill="#D9D9D9"/>
</mask>
<g mask="url(#mask0_5_677)">
<path id="close_2" d="M12 13.8057L7.10005 18.7057C6.91672 18.8891 6.68338 18.9807 6.40005 18.9807C6.11672 18.9807 5.88338 18.8891 5.70005 18.7057C5.51672 18.5224 5.42505 18.2891 5.42505 18.0057C5.42505 17.7224 5.51672 17.4891 5.70005 17.3057L10.6 12.4057L5.70005 7.50573C5.51672 7.3224 5.42505 7.08907 5.42505 6.80573C5.42505 6.5224 5.51672 6.28907 5.70005 6.10573C5.88338 5.9224 6.11672 5.83073 6.40005 5.83073C6.68338 5.83073 6.91672 5.9224 7.10005 6.10573L12 11.0057L16.9 6.10573C17.0834 5.9224 17.3167 5.83073 17.6 5.83073C17.8834 5.83073 18.1167 5.9224 18.3 6.10573C18.4834 6.28907 18.575 6.5224 18.575 6.80573C18.575 7.08907 18.4834 7.3224 18.3 7.50573L13.4 12.4057L18.3 17.3057C18.4834 17.4891 18.575 17.7224 18.575 18.0057C18.575 18.2891 18.4834 18.5224 18.3 18.7057C18.1167 18.8891 17.8834 18.9807 17.6 18.9807C17.3167 18.9807 17.0834 18.8891 16.9 18.7057L12 13.8057Z" fill="#636366"/>
</g>
</g>
</svg>
