<svg width="20" height="20" viewBox="0 0 20 20" fill="none" xmlns="http://www.w3.org/2000/svg">
<g id="directions_subway">
<mask id="mask0_2208_621" style="mask-type:alpha" maskUnits="userSpaceOnUse" x="0" y="0" width="20" height="20">
<rect id="Bounding box" width="20" height="20" fill="#D9D9D9"/>
</mask>
<g mask="url(#mask0_2208_621)">
<path id="directions_subway_2" d="M6.24992 15.8334C5.43047 15.8334 4.7395 15.5522 4.177 14.9897C3.6145 14.4272 3.33325 13.7362 3.33325 12.9167V5.00008C3.33325 3.8473 3.86797 3.00355 4.93742 2.46883C6.00686 1.93411 7.69436 1.66675 9.99992 1.66675C12.3888 1.66675 14.0971 1.92369 15.1249 2.43758C16.1527 2.95147 16.6666 3.80564 16.6666 5.00008V12.9167C16.6666 13.7362 16.3853 14.4272 15.8228 14.9897C15.2603 15.5522 14.5694 15.8334 13.7499 15.8334L15.1041 16.7292C15.2708 16.8404 15.3263 16.9966 15.2708 17.198C15.2152 17.3994 15.0833 17.5001 14.8749 17.5001H5.12492C4.91659 17.5001 4.78464 17.3994 4.72909 17.198C4.67353 16.9966 4.72909 16.8404 4.89575 16.7292L6.24992 15.8334ZM4.99992 8.33342H9.16658V5.83342H4.99992V8.33342ZM10.8333 8.33342H14.9999V5.83342H10.8333V8.33342ZM7.08325 13.3334C7.43047 13.3334 7.72561 13.2119 7.96867 12.9688C8.21172 12.7258 8.33325 12.4306 8.33325 12.0834C8.33325 11.7362 8.21172 11.4411 7.96867 11.198C7.72561 10.9549 7.43047 10.8334 7.08325 10.8334C6.73603 10.8334 6.44089 10.9549 6.19784 11.198C5.95478 11.4411 5.83325 11.7362 5.83325 12.0834C5.83325 12.4306 5.95478 12.7258 6.19784 12.9688C6.44089 13.2119 6.73603 13.3334 7.08325 13.3334ZM12.9166 13.3334C13.2638 13.3334 13.5589 13.2119 13.802 12.9688C14.0451 12.7258 14.1666 12.4306 14.1666 12.0834C14.1666 11.7362 14.0451 11.4411 13.802 11.198C13.5589 10.9549 13.2638 10.8334 12.9166 10.8334C12.5694 10.8334 12.2742 10.9549 12.0312 11.198C11.7881 11.4411 11.6666 11.7362 11.6666 12.0834C11.6666 12.4306 11.7881 12.7258 12.0312 12.9688C12.2742 13.2119 12.5694 13.3334 12.9166 13.3334Z" fill="#AEAEB2"/>
</g>
</g>
</svg>
