<svg width="16" height="16" viewBox="0 0 16 16" fill="none" xmlns="http://www.w3.org/2000/svg">
<g id="favorite">
<mask id="mask0_2183_379" style="mask-type:alpha" maskUnits="userSpaceOnUse" x="0" y="0" width="16" height="16">
<rect id="Bounding box" width="16" height="16" fill="#D9D9D9"/>
</mask>
<g mask="url(#mask0_2183_379)">
<path id="favorite_2" d="M7.99992 13.5501C7.84436 13.5501 7.68603 13.5223 7.52492 13.4667C7.36381 13.4112 7.22214 13.3223 7.09992 13.2001L5.94992 12.1501C4.77214 11.0723 3.70825 10.0028 2.75825 8.94172C1.80825 7.88061 1.33325 6.71117 1.33325 5.43339C1.33325 4.38895 1.68325 3.51672 2.38325 2.81672C3.08325 2.11672 3.95547 1.76672 4.99992 1.76672C5.58881 1.76672 6.14436 1.89172 6.66659 2.14172C7.18881 2.39172 7.63325 2.73339 7.99992 3.16672C8.36659 2.73339 8.81103 2.39172 9.33325 2.14172C9.85547 1.89172 10.411 1.76672 10.9999 1.76672C12.0444 1.76672 12.9166 2.11672 13.6166 2.81672C14.3166 3.51672 14.6666 4.38895 14.6666 5.43339C14.6666 6.71117 14.1944 7.88339 13.2499 8.95006C12.3055 10.0167 11.2333 11.0889 10.0333 12.1667L8.89992 13.2001C8.7777 13.3223 8.63603 13.4112 8.47492 13.4667C8.31381 13.5223 8.15547 13.5501 7.99992 13.5501Z" fill="#FF5555"/>
</g>
</g>
</svg>
