<svg width="16" height="16" viewBox="0 0 16 16" fill="none" xmlns="http://www.w3.org/2000/svg">
<g id="grade">
<mask id="mask0_2183_384" style="mask-type:alpha" maskUnits="userSpaceOnUse" x="0" y="0" width="16" height="16">
<rect id="Bounding box" width="16" height="16" fill="#D9D9D9"/>
</mask>
<g mask="url(#mask0_2183_384)">
<path id="grade_2" d="M7.99993 11.5166L5.23326 13.1833C5.11104 13.2611 4.98326 13.2944 4.84993 13.2833C4.7166 13.2722 4.59993 13.2277 4.49993 13.15C4.39993 13.0722 4.32215 12.975 4.2666 12.8583C4.21104 12.7416 4.19993 12.6111 4.23326 12.4666L4.9666 9.31663L2.5166 7.19997C2.40548 7.09997 2.33604 6.98608 2.30826 6.8583C2.28048 6.73052 2.28882 6.60552 2.33326 6.4833C2.37771 6.36108 2.44437 6.26108 2.53326 6.1833C2.62215 6.10552 2.74437 6.05552 2.89993 6.0333L6.13326 5.74997L7.38326 2.7833C7.43882 2.64997 7.52493 2.54997 7.6416 2.4833C7.75826 2.41663 7.87771 2.3833 7.99993 2.3833C8.12215 2.3833 8.2416 2.41663 8.35826 2.4833C8.47493 2.54997 8.56104 2.64997 8.6166 2.7833L9.8666 5.74997L13.0999 6.0333C13.2555 6.05552 13.3777 6.10552 13.4666 6.1833C13.5555 6.26108 13.6222 6.36108 13.6666 6.4833C13.711 6.60552 13.7194 6.73052 13.6916 6.8583C13.6638 6.98608 13.5944 7.09997 13.4833 7.19997L11.0333 9.31663L11.7666 12.4666C11.7999 12.6111 11.7888 12.7416 11.7333 12.8583C11.6777 12.975 11.5999 13.0722 11.4999 13.15C11.3999 13.2277 11.2833 13.2722 11.1499 13.2833C11.0166 13.2944 10.8888 13.2611 10.7666 13.1833L7.99993 11.5166Z" fill="#FDEB45"/>
</g>
</g>
</svg>
