<svg width="26" height="26" viewBox="0 0 26 26" fill="none" xmlns="http://www.w3.org/2000/svg">
<g id="keyboard_arrow_left">
<mask id="mask0_5_1252" style="mask-type:alpha" maskUnits="userSpaceOnUse" x="0" y="0" width="26" height="26">
<rect id="Bounding box" width="26" height="26" fill="#D9D9D9"/>
</mask>
<g mask="url(#mask0_5_1252)">
<path id="keyboard_arrow_left_2" d="M11.7001 13L15.9251 17.225C16.1237 17.4236 16.223 17.6764 16.223 17.9834C16.223 18.2903 16.1237 18.5431 15.9251 18.7417C15.7265 18.9403 15.4737 19.0396 15.1668 19.0396C14.8598 19.0396 14.6071 18.9403 14.4084 18.7417L9.42511 13.7584C9.31678 13.65 9.24004 13.5327 9.19491 13.4063C9.14977 13.2799 9.1272 13.1445 9.1272 13C9.1272 12.8556 9.14977 12.7202 9.19491 12.5938C9.24004 12.4674 9.31678 12.35 9.42511 12.2417L14.4084 7.25837C14.6071 7.05975 14.8598 6.96045 15.1668 6.96045C15.4737 6.96045 15.7265 7.05975 15.9251 7.25837C16.1237 7.45698 16.223 7.70975 16.223 8.0167C16.223 8.32364 16.1237 8.57642 15.9251 8.77503L11.7001 13Z" fill="#8E8E93"/>
</g>
</g>
</svg>
