<svg width="20" height="21" viewBox="0 0 20 21" fill="none" xmlns="http://www.w3.org/2000/svg">
<g id="power">
<mask id="mask0_5_705" style="mask-type:alpha" maskUnits="userSpaceOnUse" x="0" y="0" width="20" height="21">
<rect id="Bounding box" y="0.405731" width="20" height="20" fill="#D9D9D9"/>
</mask>
<g mask="url(#mask0_5_705)">
<path id="power_2" d="M7.91667 17.0724V15.4057L5.47917 12.9682C5.32639 12.8155 5.20833 12.6384 5.125 12.437C5.04167 12.2356 5 12.0238 5 11.8016V7.90573C5 7.4474 5.16319 7.05504 5.48958 6.72865C5.81597 6.40226 6.20833 6.23906 6.66667 6.23906H7.5L6.66667 7.0724V3.73906C6.66667 3.50295 6.74653 3.30504 6.90625 3.14531C7.06597 2.98559 7.26389 2.90573 7.5 2.90573C7.73611 2.90573 7.93403 2.98559 8.09375 3.14531C8.25347 3.30504 8.33333 3.50295 8.33333 3.73906V6.23906H11.6667V3.73906C11.6667 3.50295 11.7465 3.30504 11.9062 3.14531C12.066 2.98559 12.2639 2.90573 12.5 2.90573C12.7361 2.90573 12.934 2.98559 13.0938 3.14531C13.2535 3.30504 13.3333 3.50295 13.3333 3.73906V7.0724L12.5 6.23906H13.3333C13.7917 6.23906 14.184 6.40226 14.5104 6.72865C14.8368 7.05504 15 7.4474 15 7.90573V11.8016C15 12.0238 14.9583 12.2356 14.875 12.437C14.7917 12.6384 14.6736 12.8155 14.5208 12.9682L12.0833 15.4057V17.0724C12.0833 17.3085 12.0035 17.5064 11.8438 17.6661C11.684 17.8259 11.4861 17.9057 11.25 17.9057H8.75C8.51389 17.9057 8.31597 17.8259 8.15625 17.6661C7.99653 17.5064 7.91667 17.3085 7.91667 17.0724Z" fill="#1C1B1F"/>
</g>
</g>
</svg>
