<svg width="20" height="21" viewBox="0 0 20 21" fill="none" xmlns="http://www.w3.org/2000/svg">
<g id="schedule">
<mask id="mask0_5_712" style="mask-type:alpha" maskUnits="userSpaceOnUse" x="0" y="0" width="20" height="21">
<rect id="Bounding box" y="0.405731" width="20" height="20" fill="#D9D9D9"/>
</mask>
<g mask="url(#mask0_5_712)">
<path id="schedule_2" d="M10.8333 10.0724V7.0724C10.8333 6.83628 10.7534 6.63837 10.5937 6.47865C10.434 6.31892 10.2361 6.23906 9.99996 6.23906C9.76385 6.23906 9.56593 6.31892 9.40621 6.47865C9.24649 6.63837 9.16663 6.83628 9.16663 7.0724V10.3849C9.16663 10.496 9.18746 10.6036 9.22913 10.7078C9.27079 10.812 9.33329 10.9057 9.41663 10.9891L12.1666 13.7391C12.3194 13.8918 12.5138 13.9682 12.75 13.9682C12.9861 13.9682 13.1805 13.8918 13.3333 13.7391C13.4861 13.5863 13.5625 13.3918 13.5625 13.1557C13.5625 12.9196 13.4861 12.7252 13.3333 12.5724L10.8333 10.0724ZM9.99996 18.7391C8.84718 18.7391 7.76385 18.5203 6.74996 18.0828C5.73607 17.6453 4.85413 17.0516 4.10413 16.3016C3.35413 15.5516 2.76038 14.6696 2.32288 13.6557C1.88538 12.6418 1.66663 11.5585 1.66663 10.4057C1.66663 9.25295 1.88538 8.16962 2.32288 7.15573C2.76038 6.14184 3.35413 5.2599 4.10413 4.5099C4.85413 3.7599 5.73607 3.16615 6.74996 2.72865C7.76385 2.29115 8.84718 2.0724 9.99996 2.0724C11.1527 2.0724 12.2361 2.29115 13.25 2.72865C14.2638 3.16615 15.1458 3.7599 15.8958 4.5099C16.6458 5.2599 17.2395 6.14184 17.677 7.15573C18.1145 8.16962 18.3333 9.25295 18.3333 10.4057C18.3333 11.5585 18.1145 12.6418 17.677 13.6557C17.2395 14.6696 16.6458 15.5516 15.8958 16.3016C15.1458 17.0516 14.2638 17.6453 13.25 18.0828C12.2361 18.5203 11.1527 18.7391 9.99996 18.7391Z" fill="#1C1B1F"/>
</g>
</g>
</svg>
